<svg width="23" height="22" viewBox="0 0 23 22" fill="none" xmlns="http://www.w3.org/2000/svg">
<g clip-path="url(#clip0_1100_52)">
<path d="M22.5921 15.7824C21.8926 15.1018 20.3793 14.9684 17.8649 15.0066C17.8649 11.0862 18.3003 7.28284 19.5937 3.49784C19.7615 3.01735 19.7085 2.49334 19.4546 2.06505C19.2055 1.6416 18.7935 1.34624 18.31 1.25585C13.7934 0.432621 9.20973 0.432621 4.68392 1.25585C4.20965 1.34624 3.79325 1.6416 3.5442 2.06505C3.29028 2.49334 3.24261 3.01686 3.40508 3.49784C4.35363 6.28221 4.89455 9.2377 5.07161 12.5316C5.11734 13.3799 5.12901 14.1519 5.13874 14.9258V15.0114C2.62435 14.9684 1.10618 15.1018 0.406678 15.7824C0.143029 16.0347 0.00439453 16.3678 0.00439453 16.7391C0.00439453 19.0758 5.47876 21.2081 11.4945 21.2081C17.5103 21.2081 22.9944 19.0758 22.9944 16.7391C22.9944 16.3678 22.8553 16.0396 22.5921 15.7824ZM5.42671 3.16478C5.50357 3.0507 5.62323 2.96949 5.757 2.9458C7.07914 2.73166 8.41976 2.59341 9.75163 2.52718C10.0153 2.51751 10.24 2.71764 10.2546 2.97916C10.2643 3.24116 10.0629 3.46449 9.79978 3.47899C8.6839 3.5312 7.56314 3.64093 6.4565 3.80287C6.92591 5.37342 7.27566 6.97299 7.51985 8.66729C7.55828 8.92446 7.37635 9.16712 7.11757 9.20531C7.09373 9.21015 7.0699 9.21015 7.04557 9.21015C6.81111 9.21015 6.60486 9.03854 6.5713 8.80071C6.30327 6.96815 5.91509 5.25016 5.37855 3.5602C5.33526 3.42678 5.35472 3.28418 5.42622 3.16527L5.42671 3.16478ZM6.09702 15.1066C6.09264 14.6165 6.08243 13.6318 6.05859 13.16V13.1218C9.63148 13.9547 13.3673 13.9499 16.9358 13.117C16.9334 13.1648 16.9023 14.7832 16.9023 15.1018C13.3196 15.8873 9.68936 15.8917 6.09702 15.1066ZM19.6754 17.7624C18.7512 18.2144 16.1551 19.2663 12.0316 19.3523H12.017C11.7582 19.3523 11.5476 19.1478 11.5378 18.8858C11.533 18.6238 11.7436 18.4053 12.0072 18.4005C15.9445 18.3198 18.3869 17.3298 19.2586 16.9107C19.493 16.7917 19.7805 16.8918 19.8958 17.1296C20.0155 17.3631 19.9148 17.6483 19.6754 17.7629V17.7624Z" fill="white"/>
</g>
<defs>
<clipPath id="clip0_1100_52">
<rect width="22.99" height="20.57" fill="white" transform="translate(0.00488281 0.63855)"/>
</clipPath>
</defs>
</svg>
