<svg width="54" height="54" viewBox="0 0 54 54" fill="none" xmlns="http://www.w3.org/2000/svg">
<circle cx="27" cy="27" r="27" fill="#FEE500"/>
<g clip-path="url(#clip0_915_18859)">
<path d="M27.2999 12.6001C18.5183 12.6001 11.3999 18.147 11.3999 24.9933C11.3999 29.448 14.4142 33.3521 18.9416 35.5365C18.6083 36.7589 17.7377 39.9705 17.5636 40.6572C17.3474 41.5096 17.8788 41.4978 18.2301 41.2699C18.5033 41.0893 22.5863 38.3514 24.3487 37.1704C25.3064 37.3095 26.2911 37.3835 27.2999 37.3835C36.0815 37.3835 43.1999 31.8366 43.1999 24.9933C43.1999 18.1499 36.0815 12.6001 27.2999 12.6001Z" fill="#371D1E"/>
<path d="M16.2065 22.7111H17.8427C17.8427 22.7111 17.8517 27.1421 17.8427 28.1751C17.8427 28.9299 19.545 28.9388 19.542 28.187L19.548 22.7703C19.548 22.7703 20.0974 22.7733 21.1752 22.7733C22.193 22.7733 22.193 21.1956 21.1752 21.1956C20.0283 21.1956 16.1974 21.1631 16.1974 21.1631C15.2367 21.1631 15.2397 22.7111 16.1974 22.7111" fill="#FAE100"/>
<mask id="mask0_915_18859" style="mask-type:luminance" maskUnits="userSpaceOnUse" x="15" y="21" width="7" height="8">
<path d="M16.2065 22.7111H17.8427C17.8427 22.7111 17.8517 27.1421 17.8427 28.1751C17.8427 28.9299 19.545 28.9388 19.542 28.187L19.548 22.7703C19.548 22.7703 20.0974 22.7733 21.1752 22.7733C22.193 22.7733 22.193 21.1956 21.1752 21.1956C20.0283 21.1956 16.1974 21.1631 16.1974 21.1631C15.2367 21.1631 15.2397 22.7111 16.1974 22.7111" fill="white"/>
</mask>
<g mask="url(#mask0_915_18859)">
<path d="M22.1991 21.1631H15.2458V28.9388H22.1991V21.1631Z" fill="#FAE100"/>
</g>
<path d="M24.0397 22.9984L24.9493 25.8103H23.0519L24.0397 22.9984ZM23.0189 21.6812C22.6166 22.5544 21.1605 26.6835 20.6801 27.7787C20.3319 28.569 21.836 29.2142 22.1843 28.4239L22.5115 27.2962H25.5048C25.5048 27.2962 25.4027 27.3435 25.799 28.3766C26.1202 29.2142 27.6754 28.6341 27.3542 27.7964C26.8948 26.6006 25.3036 22.291 25.0124 21.6812C24.8803 21.4 24.3999 21.1958 23.9346 21.1958C23.5503 21.1958 23.175 21.3349 23.0159 21.6812" fill="#FAE100"/>
<mask id="mask1_915_18859" style="mask-type:luminance" maskUnits="userSpaceOnUse" x="20" y="21" width="8" height="8">
<path d="M24.0397 22.9984L24.9493 25.8103H23.0519L24.0397 22.9984ZM23.0189 21.6812C22.6166 22.5544 21.1605 26.6835 20.6801 27.7787C20.3319 28.569 21.836 29.2142 22.1843 28.4239L22.5115 27.2962H25.5048C25.5048 27.2962 25.4027 27.3435 25.799 28.3766C26.1202 29.2142 27.6754 28.6341 27.3542 27.7964C26.8948 26.6006 25.3036 22.291 25.0124 21.6812C24.8803 21.4 24.3999 21.1958 23.9346 21.1958C23.5503 21.1958 23.175 21.3349 23.0159 21.6812" fill="white"/>
</mask>
<g mask="url(#mask1_915_18859)">
<path d="M27.6784 21.1958H20.3289V29.2172H27.6784V21.1958Z" fill="#FAE100"/>
</g>
<path d="M27.9304 21.9387C27.9304 23.3417 27.9394 27.8645 27.9394 27.8645C27.9394 27.8645 27.8073 28.7643 28.5909 28.7643C29.3745 28.7643 31.1068 28.7554 31.8754 28.7554C32.644 28.7554 32.641 27.1423 31.8724 27.1423C31.1038 27.1423 29.6988 27.1334 29.6988 27.1334C29.6988 27.1334 29.7048 22.951 29.7018 21.9328C29.7018 21.4415 29.2574 21.1958 28.8161 21.1958C28.3748 21.1958 27.9274 21.4444 27.9304 21.9358" fill="#FAE100"/>
<mask id="mask2_915_18859" style="mask-type:luminance" maskUnits="userSpaceOnUse" x="27" y="21" width="6" height="8">
<path d="M27.9304 21.9387C27.9304 23.3417 27.9394 27.8645 27.9394 27.8645C27.9394 27.8645 27.8073 28.7643 28.5909 28.7643C29.3745 28.7643 31.1068 28.7554 31.8754 28.7554C32.644 28.7554 32.641 27.1423 31.8724 27.1423C31.1038 27.1423 29.6988 27.1334 29.6988 27.1334C29.6988 27.1334 29.7048 22.951 29.7018 21.9328C29.7018 21.4415 29.2574 21.1958 28.8161 21.1958C28.3748 21.1958 27.9274 21.4444 27.9304 21.9358" fill="white"/>
</mask>
<g mask="url(#mask2_915_18859)">
<path d="M32.644 21.1958H27.8074V28.7613H32.644V21.1958Z" fill="#FAE100"/>
</g>
<path d="M32.8482 21.7133C32.8662 22.3289 32.8271 27.8936 32.8271 28.305C32.8271 28.9562 34.5084 28.9532 34.5084 28.305C34.5084 27.5502 34.5084 26.1147 34.5084 26.1147L35.0008 25.724L37.1594 28.6247C37.5947 29.193 38.9668 28.1659 38.5315 27.6005L36.2407 24.6258C36.2407 24.6258 37.7959 22.9683 38.4084 22.3674C38.7656 22.0181 37.6578 20.9171 37.3005 21.2693C36.9553 21.6067 34.5174 24.0131 34.5174 24.0131C34.5174 24.0131 34.5384 22.5036 34.5174 21.6689C34.5084 21.3522 34.1151 21.1982 33.7098 21.1982C33.2775 21.1982 32.8362 21.3729 32.8452 21.7133" fill="#FAE100"/>
<mask id="mask3_915_18859" style="mask-type:luminance" maskUnits="userSpaceOnUse" x="32" y="21" width="7" height="8">
<path d="M32.8482 21.7133C32.8662 22.3289 32.8271 27.8936 32.8271 28.305C32.8271 28.9562 34.5084 28.9532 34.5084 28.305C34.5084 27.5502 34.5084 26.1147 34.5084 26.1147L35.0008 25.724L37.1594 28.6247C37.5947 29.193 38.9668 28.1659 38.5315 27.6005L36.2407 24.6258C36.2407 24.6258 37.7959 22.9683 38.4084 22.3674C38.7656 22.0181 37.6578 20.9171 37.3005 21.2693C36.9553 21.6067 34.5174 24.0131 34.5174 24.0131C34.5174 24.0131 34.5384 22.5036 34.5174 21.6689C34.5084 21.3522 34.1151 21.1982 33.7098 21.1982C33.2775 21.1982 32.8362 21.3729 32.8452 21.7133" fill="white"/>
</mask>
<g mask="url(#mask3_915_18859)">
<path d="M38.9668 20.9204H32.8271V29.1963H38.9668V20.9204Z" fill="#FAE100"/>
</g>
</g>
<defs>
<clipPath id="clip0_915_18859">
<rect width="31.8" height="28.8" fill="white" transform="translate(11.3999 12.6001)"/>
</clipPath>
</defs>
</svg>
