<svg width="257" height="21" viewBox="0 0 257 21" fill="none" xmlns="http://www.w3.org/2000/svg">
<g clip-path="url(#clip0_309_2177)">
<path d="M240.48 9.64012L238.46 7.62012H227.37V20.8501H229.69V9.95012H238.26V20.8501H240.59V9.79012L240.57 9.64012H240.48Z" fill="white"/>
<path d="M253.69 7.47021V12.2702H246.46V7.47021H244.13V12.4702L246.26 14.6002H253.69V18.5302H243.94L246.27 20.8602H253.7H256.03V7.47021H253.7H253.69Z" fill="white"/>
<path d="M174.57 20.8401H176.9V9.94012H180.54V20.8501H182.86V9.94012H186.5V18.0601L186.48 20.8501H188.82V7.62012H174.57V20.8401Z" fill="white"/>
<path d="M141.51 7.65012V7.73012L139.49 9.75012V20.8501H152.71V18.5201H141.82V9.95012H152.71V7.62012H141.65L141.51 7.65012Z" fill="white"/>
<path d="M204.57 7.70996H193.47V20.93H195.8V10.04H204.37V13.16H197.5V15.49H206.7V9.83996L204.57 7.70996Z" fill="white"/>
<path d="M157 8V21.22H170.22V10.13L168.09 8H157ZM167.89 10.33V18.9H159.32V10.33H167.89Z" fill="white"/>
<path d="M212.51 9.95012H221.28V18.5201H212.71V15.4001H219.53V13.0701H210.38V20.8501H221.48L223.6 18.7201V7.62012H210.18L212.51 9.95012Z" fill="white"/>
<path d="M165.9 11.9902H161.42V16.4702H165.9V11.9902Z" fill="#DD2A7B"/>
<path d="M0 20.98H2.33V5.62L15.23 18.52H5.86V20.85H20.85L0 0V20.98Z" fill="white"/>
<path d="M41.4599 7.62012V20.8401H54.68V9.75012L52.5499 7.62012H41.45H41.4599ZM52.3499 9.95012V18.5201H43.7799V9.95012H52.3499Z" fill="white"/>
<path d="M98.21 13.21V14.23V14.24V15.26H99.53H105.39V13.21H104.81H104.21H98.21Z" fill="#DD2A7B"/>
<path d="M93.1899 20.8501H106.41V18.5201H95.5099V9.95012H103.63L106.42 9.97012V7.62012H93.1899V20.8501Z" fill="white"/>
<path d="M37.33 9.64012L35.31 7.62012H24.22V20.8501H26.54V9.95012H35.11V20.8501H37.44V9.79012L37.41 9.64012H37.33Z" fill="white"/>
<path d="M62.5699 9.9499H69.2599L69.2799 7.6199H62.5699V1.6499H60.2399V7.6199H56.1399L58.4699 9.9499H60.2399V20.8499H69.3799L71.5999 18.5199H62.5699V9.9499Z" fill="white"/>
<path d="M86.08 7.6199H77.31V1.6499H74.99V20.8499H77.31V9.9499H85.88V20.8499H88.21V9.7499L86.08 7.6199Z" fill="white"/>
<path d="M45.8999 11.54V16.94L50.6399 14.23L45.8999 11.54Z" fill="#DD2A7B"/>
<path d="M110.78 0.200195V20.8502H119.18L116.94 18.5202H113.11V2.6802H125.83L118.74 9.6202L128.52 20.9302H131.3L131.39 20.8902L131.53 20.7602L122.02 9.7802L131.81 0.200195H110.78Z" fill="white"/>
</g>
<defs>
<clipPath id="clip0_309_2177">
<rect width="256.01" height="20.98" fill="white"/>
</clipPath>
</defs>
</svg>
