<svg width="23" height="22" fill="none" xmlns="http://www.w3.org/2000/svg"><g clip-path="url(#clip0_1100_52)"><path d="M22.592 15.782c-.7-.68-2.213-.814-4.727-.775 0-3.92.435-7.724 1.729-11.51a1.706 1.706 0 00-1.284-2.241 37.898 37.898 0 00-13.626 0c-.474.09-.89.386-1.14.809a1.725 1.725 0 00-.139 1.433c.949 2.784 1.49 5.74 1.667 9.034.045.848.057 1.62.067 2.394v.085c-2.515-.043-4.033.09-4.732.771a1.296 1.296 0 00-.403.957c0 2.337 5.475 4.47 11.49 4.47 6.016 0 11.5-2.133 11.5-4.47 0-.371-.139-.7-.402-.957zM5.427 3.165a.51.51 0 01.33-.22 36.333 36.333 0 013.995-.418c.263-.01.488.19.503.452a.482.482 0 01-.455.5 34.176 34.176 0 00-3.344.324c.47 1.57.82 3.17 1.064 4.864a.477.477 0 01-.474.543.479.479 0 01-.475-.41A32.861 32.861 0 005.38 3.56a.478.478 0 01.047-.395zm.67 11.942a63.762 63.762 0 00-.038-1.947v-.038c3.572.833 7.308.828 10.877-.005-.003.048-.034 1.666-.034 1.985-3.582.785-7.213.79-10.805.005zm13.578 2.655c-.924.452-3.52 1.504-7.643 1.59h-.015a.48.48 0 01-.48-.466.478.478 0 01.47-.485c3.938-.081 6.38-1.071 7.252-1.49a.473.473 0 01.637.219.467.467 0 01-.22.633z" fill="#fff"/></g><defs><clipPath id="clip0_1100_52"><path fill="#fff" transform="translate(.005 .639)" d="M0 0h22.99v20.57H0z"/></clipPath></defs></svg>