<svg width="54" height="54" fill="none" xmlns="http://www.w3.org/2000/svg"><circle cx="27" cy="27" r="27" fill="#FEE500"/><g clip-path="url(#clip0_915_18859)"><path d="M27.3 12.6c-8.782 0-15.9 5.547-15.9 12.393 0 4.455 3.014 8.36 7.542 10.543a641.336 641.336 0 00-1.378 5.121c-.217.853.315.84.666.613.273-.18 4.356-2.919 6.119-4.1.957.14 1.942.213 2.95.213 8.782 0 15.9-5.546 15.9-12.39 0-6.843-7.117-12.393-15.9-12.393z" fill="#371D1E"/><path d="M16.206 22.711h1.637s.009 4.431 0 5.464c0 .755 1.702.764 1.699.012l.006-5.417s.55.003 1.627.003c1.018 0 1.018-1.577 0-1.577-1.147 0-4.978-.033-4.978-.033-.96 0-.957 1.548 0 1.548" fill="#FAE100"/><mask id="a" style="mask-type:luminance" maskUnits="userSpaceOnUse" x="15" y="21" width="7" height="8"><path d="M16.206 22.711h1.637s.009 4.431 0 5.464c0 .755 1.702.764 1.699.012l.006-5.417s.55.003 1.627.003c1.018 0 1.018-1.577 0-1.577-1.147 0-4.978-.033-4.978-.033-.96 0-.957 1.548 0 1.548" fill="#fff"/></mask><g mask="url(#a)"><path d="M22.2 21.163h-6.954v7.776h6.953v-7.776z" fill="#FAE100"/></g><path d="M24.04 22.998l.91 2.812h-1.898l.988-2.812zm-1.021-1.317c-.402.873-1.858 5.002-2.339 6.098-.348.79 1.156 1.435 1.504.645l.328-1.128h2.993s-.102.047.294 1.08c.321.838 1.876.258 1.555-.58-.46-1.195-2.05-5.505-2.342-6.115-.132-.281-.612-.485-1.077-.485-.385 0-.76.139-.92.485" fill="#FAE100"/><mask id="b" style="mask-type:luminance" maskUnits="userSpaceOnUse" x="20" y="21" width="8" height="8"><path d="M24.04 22.998l.91 2.812h-1.898l.988-2.812zm-1.021-1.317c-.402.873-1.858 5.002-2.339 6.098-.348.79 1.156 1.435 1.504.645l.328-1.128h2.993s-.102.047.294 1.08c.321.838 1.876.258 1.555-.58-.46-1.195-2.05-5.505-2.342-6.115-.132-.281-.612-.485-1.077-.485-.385 0-.76.139-.92.485" fill="#fff"/></mask><g mask="url(#b)"><path d="M27.678 21.196h-7.35v8.021h7.35v-8.021z" fill="#FAE100"/></g><path d="M27.93 21.939c0 1.403.01 5.925.01 5.925s-.133.9.65.9c.785 0 2.517-.009 3.285-.009.769 0 .766-1.613-.003-1.613-.768 0-2.173-.009-2.173-.009s.006-4.182.003-5.2c0-.491-.445-.737-.886-.737s-.889.248-.886.74" fill="#FAE100"/><mask id="c" style="mask-type:luminance" maskUnits="userSpaceOnUse" x="27" y="21" width="6" height="8"><path d="M27.93 21.939c0 1.403.01 5.925.01 5.925s-.133.9.65.9c.785 0 2.517-.009 3.285-.009.769 0 .766-1.613-.003-1.613-.768 0-2.173-.009-2.173-.009s.006-4.182.003-5.2c0-.491-.445-.737-.886-.737s-.889.248-.886.74" fill="#fff"/></mask><g mask="url(#c)"><path d="M32.644 21.196h-4.837v7.565h4.837v-7.565z" fill="#FAE100"/></g><path d="M32.848 21.713c.018.616-.02 6.18-.02 6.592 0 .651 1.68.648 1.68 0v-2.19l.493-.391 2.158 2.9c.436.569 1.808-.458 1.373-1.023l-2.291-2.975s1.555-1.658 2.167-2.259c.358-.349-.75-1.45-1.108-1.098-.345.338-2.783 2.744-2.783 2.744s.021-1.51 0-2.344c-.009-.317-.402-.47-.807-.47-.432 0-.874.174-.865.514" fill="#FAE100"/><mask id="d" style="mask-type:luminance" maskUnits="userSpaceOnUse" x="32" y="21" width="7" height="8"><path d="M32.848 21.713c.018.616-.02 6.18-.02 6.592 0 .651 1.68.648 1.68 0v-2.19l.493-.391 2.158 2.9c.436.569 1.808-.458 1.373-1.023l-2.291-2.975s1.555-1.658 2.167-2.259c.358-.349-.75-1.45-1.108-1.098-.345.338-2.783 2.744-2.783 2.744s.021-1.51 0-2.344c-.009-.317-.402-.47-.807-.47-.432 0-.874.174-.865.514" fill="#fff"/></mask><g mask="url(#d)"><path d="M38.967 20.92h-6.14v8.276h6.14V20.92z" fill="#FAE100"/></g></g><defs><clipPath id="clip0_915_18859"><path fill="#fff" transform="translate(11.4 12.6)" d="M0 0h31.8v28.8H0z"/></clipPath></defs></svg>