<svg width="257" height="21" fill="none" xmlns="http://www.w3.org/2000/svg"><g clip-path="url(#clip0_309_2177)"><path d="M240.48 9.64l-2.02-2.02h-11.09v13.23h2.32V9.95h8.57v10.9h2.33V9.79l-.02-.15h-.09zm13.21-2.17v4.8h-7.23v-4.8h-2.33v5l2.13 2.13h7.43v3.93h-9.75l2.33 2.33h9.76V7.47h-2.34zm-79.12 13.37h2.33V9.94h3.64v10.91h2.32V9.94h3.64v8.12l-.02 2.79h2.34V7.62h-14.25v13.22zM141.51 7.65v.08l-2.02 2.02v11.1h13.22v-2.33h-10.89V9.95h10.89V7.62h-11.06l-.14.03zm63.06.06h-11.1v13.22h2.33V10.04h8.57v3.12h-6.87v2.33h9.2V9.84l-2.13-2.13zM157 8v13.22h13.22V10.13L168.09 8H157zm10.89 2.33v8.57h-8.57v-8.57h8.57zm44.62-.38h8.77v8.57h-8.57V15.4h6.82v-2.33h-9.15v7.78h11.1l2.12-2.13V7.62h-13.42l2.33 2.33z" fill="#fff"/><path d="M165.9 11.99h-4.48v4.48h4.48v-4.48z" fill="#DD2A7B"/><path d="M0 20.98h2.33V5.62l12.9 12.9H5.86v2.33h14.99L0 0v20.98zM41.46 7.62v13.22h13.22V9.75l-2.13-2.13h-11.1.01zm10.89 2.33v8.57h-8.57V9.95h8.57z" fill="#fff"/><path d="M98.21 13.21v2.05h7.18v-2.05h-7.18z" fill="#DD2A7B"/><path d="M93.19 20.85h13.22v-2.33h-10.9V9.95h8.12l2.79.02V7.62H93.19v13.23zM37.33 9.64l-2.02-2.02H24.22v13.23h2.32V9.95h8.57v10.9h2.33V9.79l-.03-.15h-.08zm25.24.31h6.69l.02-2.33h-6.71V1.65h-2.33v5.97h-4.1l2.33 2.33h1.77v10.9h9.14l2.22-2.33h-9.03V9.95zm23.51-2.33h-8.77V1.65h-2.32v19.2h2.32V9.95h8.57v10.9h2.33V9.75l-2.13-2.13z" fill="#fff"/><path d="M45.9 11.54v5.4l4.74-2.71-4.74-2.69z" fill="#DD2A7B"/><path d="M110.78.2v20.65h8.4l-2.24-2.33h-3.83V2.68h12.72l-7.09 6.94 9.78 11.31h2.78l.09-.04.14-.13-9.51-10.98L131.81.2h-21.03z" fill="#fff"/></g><defs><clipPath id="clip0_309_2177"><path fill="#fff" d="M0 0h256.01v20.98H0z"/></clipPath></defs></svg>